<svg id="Layer_2" xmlns="http://www.w3.org/2000/svg" viewBox="0 0 20 20"><defs><style>.cls-1{fill:#f5f5f1;}.cls-2{fill:#0f0f0f;opacity:0;}</style></defs><g id="Layer_1-2"><rect class="cls-2" width="20" height="20"/><rect class="cls-1" x="12.97" y="4.2" width="4.99" height="11.59" rx="2.5" ry="2.5" transform="translate(-2.95 10.2) rotate(-33.53)"/><rect class="cls-1" x="5.7" y="4.2" width="4.99" height="11.59" rx="2.5" ry="2.5" transform="translate(-4.16 6.19) rotate(-33.53)"/><path class="cls-1" d="M5,12.48l-.49-.15c-.66-.2-1.18-.72-1.38-1.38l-.15-.49c-.04-.12-.15-.2-.27-.2s-.24.08-.27.2l-.15.49c-.2.66-.72,1.18-1.38,1.38l-.49.15c-.12.04-.2.15-.2.27s.08.24.2.27l.49.15c.66.2,1.18.72,1.38,1.38l.15.49c.04.12.15.2.27.2s.24-.08.27-.2l.15-.49c.2-.66.72-1.18,1.38-1.38l.49-.15c.12-.04.2-.15.2-.27s-.08-.24-.2-.27Z"/></g></svg>